Coordinates
version=1
nRows=6
nColumns=107
inDegrees=yes

Units are S.I. units (second, meters, Newtons, ...)
If the header above contains a line with 'inDegrees', this indicates whether rotational values are in degrees (yes) or radians (no).

endheader
time	sternoclavicular_r2	sternoclavicular_r3	unrotscap_r3	unrotscap_r2	acromioclavicular_r2	acromioclavicular_r3	acromioclavicular_r1	unrothum_r1	unrothum_r3	unrothum_r2	elv_angle	shoulder_elv	shoulder1_r2	shoulder_rot	elbow_flexion	pro_sup	deviation	flexion	proximal_distal_r1	proximal_distal_r3	cmc_flexion	cmc_abduction	mp_flexion	ip_flexion	mcp2_flexion	mcp2_abduction	pm2_flexion	md2_flexion	mcp3_flexion	mcp3_abduction	pm3_flexion	md3_flexion	mcp4_flexion	mcp4_abduction	pm4_flexion	md4_flexion	mcp5_flexion	mcp5_abduction	pm5_flexion	md5_flexion	bicpt_tx	bicpt_ty	bicpt_tz	bicpt2_tx	bicpt2_ty	bicpt2_tz	ptpt_tx	ptpt_ty	ptpt_tz	FCUpt_tx	FCUpt_ty	FCUpt_tz	EDCpt_tx	EDCpt_ty	EDCpt_tz	APLpt_tx	APLpt_ty	APLpt_tz	FPLpt_tx	FPLpt_ty	FPLpt_tz	FPLpt2_tx	FPLpt2_ty	FPLpt2_tz	PEC1pt2_tx	PEC1pt2_ty	PEC1pt2_tz	PEC1pt3_tx	PEC1pt3_ty	PEC1pt3_tz	PEC2pt2_tx	PEC2pt2_ty	PEC2pt2_tz	PEC2pt3_tx	PEC2pt3_ty	PEC2pt3_tz	PEC3pt2_tx	PEC3pt2_ty	PEC3pt2_tz	PEC3pt3_tx	PEC3pt3_ty	PEC3pt3_tz	DELT2pt2a_tx	DELT2pt2a_ty	DELT2pt2a_tz	DELT2pt2_tx	DELT2pt2_ty	DELT2pt2_tz	LAT1pt2_tx	LAT1pt2_ty	LAT1pt2_tz	LAT1pt3_tx	LAT1pt3_ty	LAT1pt3_tz	LAT2pt2_tx	LAT2pt2_ty	LAT2pt2_tz	LAT2pt3_tx	LAT2pt3_ty	LAT2pt3_tz	LAT3pt2_tx	LAT3pt2_ty	LAT3pt2_tz	LAT3pt3_tx	LAT3pt3_ty	LAT3pt3_tz
      0.00000000	     -0.32331518	      0.13694105	     -0.13694105	      0.32331518	     -0.06546475	      0.52906306	      0.23781020	     -0.23781020	     -0.52906306	      0.06546475	     98.30092843	     76.54774271	     -1.71567486	    -21.94676167	     29.30670418	     26.84948194	      0.08816456	     -0.84085419	      0.11328956	     -0.42042710	      5.84902924	     13.41808588	    -38.69468116	    -59.40067507	      8.67231803	      9.95197316	     16.64434165	    -18.32770076	     87.61082792	      4.30916130	     73.55900654	     34.32171780	     81.88332197	    -11.61921167	     70.07702590	     25.96963852	     25.32108212	     -7.98926583	    -16.37459487	      4.89472859	      0.00086937	     -0.03095900	     -0.00484105	      0.01635202	     -0.01816131	     -0.00875263	      0.00556613	     -0.06618281	     -0.00221287	      0.00648295	     -0.18374407	     -0.00022795	     -0.00322193	      0.00087198	      0.00019396	      0.00026821	      0.00010728	      0.00053641	      0.00034330	      0.00102991	      0.00057933	      0.00003827	     -0.00012722	     -0.00015266	      0.00250907	      0.00880300	      0.00612382	     -0.00820763	      0.01981738	     -0.01879674	      0.00250907	      0.00880300	      0.00612382	      0.00055285	      0.01837147	     -0.00965353	      0.00396233	      0.00489524	      0.01600271	      0.00000000	      0.00783691	      0.00000000	     -0.00718699	     -0.03321324	     -0.00646221	      0.01487429	     -0.00049247	     -0.00400347	     -0.00089306	      0.01496935	     -0.00612382	      0.00246654	      0.02160349	     -0.01786116	     -0.00599624	      0.01297060	     -0.00548593	     -0.01250281	      0.02738710	     -0.03066165	     -0.02347466	      0.01450156	     -0.00735709	     -0.01556472	      0.03163976	     -0.03831643
      0.03333333	     -0.32255256	      0.13661804	     -0.13661804	      0.32255256	     -0.06531033	      0.52781513	      0.23724927	     -0.23724927	     -0.52781513	      0.06531033	     98.56522032	     76.36718598	     -1.72028762	    -22.75892802	     29.09994671	     27.15569940	      0.07926745	     -0.87798991	      0.10243435	     -0.43899495	      5.60627170	     14.06110137	    -38.01588392	    -59.01561387	     10.20653621	     10.40004230	     15.73592129	    -18.79276379	     88.15896384	      4.12717701	     74.79801263	     33.16299650	     82.31926793	    -11.77202351	     73.13431497	     26.18696324	     25.38363235	     -8.39315590	    -15.68159041	      4.88928480	      0.00086254	     -0.03093530	     -0.00483723	      0.01636170	     -0.01810514	     -0.00872553	      0.00554350	     -0.06619744	     -0.00223754	      0.00651255	     -0.18373883	     -0.00023312	     -0.00325868	      0.00088321	      0.00019392	      0.00025274	      0.00010110	      0.00050549	      0.00032351	      0.00097053	      0.00054593	      0.00003873	     -0.00012270	     -0.00014724	      0.00250315	      0.00878223	      0.00610938	     -0.00818827	      0.01977063	     -0.01875240	      0.00250315	      0.00878223	      0.00610938	      0.00055154	      0.01832814	     -0.00963076	      0.00395551	      0.00488369	      0.01598612	      0.00000000	      0.00779972	      0.00000000	     -0.00717004	     -0.03313490	     -0.00643134	      0.01531740	     -0.00051815	     -0.00431477	     -0.00089095	      0.01493404	     -0.00610938	      0.00246072	      0.02155254	     -0.01781903	     -0.00598210	      0.01294001	     -0.00547299	     -0.01247332	      0.02732251	     -0.03058933	     -0.02341929	      0.01446735	     -0.00733974	     -0.01552801	      0.03156513	     -0.03822605
      0.06666667	     -0.32269005	      0.13667627	     -0.13667627	      0.32269005	     -0.06533817	      0.52804011	      0.23735040	     -0.23735040	     -0.52804011	      0.06533817	     98.56756606	     76.39973749	     -1.72032856	    -22.55129459	     29.05712974	     27.09329469	      0.08856605	     -0.87465522	      0.11377676	     -0.43732761	      5.54450957	     14.42815391	    -37.39936253	    -58.95406483	     11.01268264	     10.88823869	     15.42223725	    -19.81487362	     88.51063275	      4.24573307	     75.47735948	     33.77742030	     82.78531772	    -11.74435113	     74.67008124	     27.62992148	     25.39706290	     -8.41258380	    -15.00297728	      4.87754441	      0.00086112	     -0.03093039	     -0.00483644	      0.01635975	     -0.01809351	     -0.00873106	      0.00554811	     -0.06619445	     -0.00223251	      0.00650651	     -0.18373990	     -0.00023207	     -0.00325119	      0.00088092	      0.00019394	      0.00025423	      0.00010169	      0.00050846	      0.00032542	      0.00097625	      0.00054914	      0.00003885	     -0.00012153	     -0.00014584	      0.00250422	      0.00878598	      0.00611198	     -0.00819176	      0.01977906	     -0.01876040	      0.00250422	      0.00878598	      0.00611198	      0.00055178	      0.01833595	     -0.00963486	      0.00395674	      0.00488577	      0.01598912	      0.00000000	      0.00780642	      0.00000000	     -0.00717309	     -0.03314903	     -0.00643690	      0.01520497	     -0.00051156	     -0.00423424	     -0.00089133	      0.01494041	     -0.00611198	      0.00246177	      0.02156172	     -0.01782662	     -0.00598465	      0.01294552	     -0.00547532	     -0.01247863	      0.02733415	     -0.03060237	     -0.02342927	      0.01447352	     -0.00734287	     -0.01553463	      0.03157858	     -0.03824235
      0.10000000	     -0.32273693	      0.13669613	     -0.13669613	      0.32273693	     -0.06534766	      0.52811683	      0.23738488	     -0.23738488	     -0.52811683	      0.06534766	     98.56495899	     76.41083679	     -1.72028306	    -22.55204130	     29.06150329	     27.09506147	      0.08856296	     -0.87466427	      0.11377253	     -0.43733214	      5.54412255	     14.42848505	    -37.39889107	    -58.95365889	     11.01525438	     10.88981128	     15.42273678	    -19.81445498	     88.51234729	      4.24587512	     75.47851946	     33.77766842	     82.78859881	    -11.74433440	     74.67338881	     27.63052836	     25.39574420	     -8.41291006	    -15.00350709	      4.87751890	      0.00086126	     -0.03093089	     -0.00483652	      0.01635980	     -0.01809470	     -0.00873090	      0.00554798	     -0.06619454	     -0.00223265	      0.00650668	     -0.18373987	     -0.00023210	     -0.00325140	      0.00088098	      0.00019393	      0.00025422	      0.00010169	      0.00050844	      0.00032540	      0.00097621	      0.00054912	      0.00003885	     -0.00012153	     -0.00014583	      0.00250458	      0.00878725	      0.00611287	     -0.00819295	      0.01978193	     -0.01876312	      0.00250458	      0.00878725	      0.00611287	      0.00055186	      0.01833862	     -0.00963626	      0.00395716	      0.00488648	      0.01599014	      0.00000000	      0.00780870	      0.00000000	     -0.00717413	     -0.03315384	     -0.00643879	      0.01520536	     -0.00051158	     -0.00423454	     -0.00089146	      0.01494258	     -0.00611287	      0.00246213	      0.02156485	     -0.01782921	     -0.00598552	      0.01294740	     -0.00547611	     -0.01248045	      0.02733812	     -0.03060681	     -0.02343268	      0.01447562	     -0.00734394	     -0.01553688	      0.03158317	     -0.03824790
      0.13333333	     -0.32207949	      0.13641767	     -0.13641767	      0.32207949	     -0.06521455	      0.52704102	      0.23690131	     -0.23690131	     -0.52704102	      0.06521455	     98.70399401	     76.25518258	     -1.72270968	    -23.21656313	     29.12237042	     27.95586004	      0.09537338	     -0.86577468	      0.12199005	     -0.43288734	      5.21835937	     14.92901634	    -36.62109067	    -57.83576691	     11.64415997	     11.53817294	     16.05466001	    -19.83753671	     88.66294306	      4.23863405	     76.51153512	     34.93211553	     82.98389988	    -11.75364873	     76.70080614	     29.12379721	     25.52349141	     -8.44220348	    -14.96487161	      4.91575864	      0.00086328	     -0.03093787	     -0.00483764	      0.01638597	     -0.01811123	     -0.00865407	      0.00548438	     -0.06623567	     -0.00230199	      0.00659003	     -0.18372502	     -0.00024630	     -0.00335470	      0.00091269	      0.00019358	      0.00025808	      0.00010323	      0.00051617	      0.00033035	      0.00099104	      0.00055746	      0.00003952	     -0.00011533	     -0.00013840	      0.00249948	      0.00876935	      0.00610042	     -0.00817626	      0.01974164	     -0.01872490	      0.00249948	      0.00876935	      0.00610042	      0.00055073	      0.01830126	     -0.00961663	      0.00395128	      0.00487653	      0.01597580	      0.00000000	      0.00777670	      0.00000000	     -0.00715952	     -0.03308630	     -0.00641223	      0.01556319	     -0.00053272	     -0.00449449	     -0.00088964	      0.01491214	     -0.00610042	      0.00245711	      0.02152093	     -0.01779289	     -0.00597333	      0.01292103	     -0.00546496	     -0.01245502	      0.02728243	     -0.03054446	     -0.02338494	      0.01444613	     -0.00732898	     -0.01550523	      0.03151884	     -0.03816999
      0.16666667	     -0.32366056	      0.13708734	     -0.13708734	      0.32366056	     -0.06553468	      0.52962822	      0.23806424	     -0.23806424	     -0.52962822	      0.06553468	     98.35441108	     76.62951394	     -1.71660831	    -21.20904940	     28.94604461	     25.47104203	      0.08998239	     -0.90224691	      0.11549148	     -0.45112345	      4.85077383	     15.12353300	    -36.47166262	    -57.90683353	     12.80740219	     11.41090657	     14.74110062	    -18.88090141	     88.57651507	      4.19441959	     77.25369975	     33.52030658	     82.57255010	    -11.82856887	     77.84434347	     28.93579751	     25.17821496	     -8.63507342	    -14.34497695	      4.89493512	      0.00085745	     -0.03091766	     -0.00483439	      0.01630580	     -0.01806334	     -0.00887303	      0.00566798	     -0.06611695	     -0.00210183	      0.00635006	     -0.18376733	     -0.00020380	     -0.00305652	      0.00082180	      0.00019352	      0.00024140	      0.00009656	      0.00048280	      0.00030899	      0.00092697	      0.00052142	      0.00004034	     -0.00010820	     -0.00012984	      0.00251175	      0.00881240	      0.00613037	     -0.00821639	      0.01983855	     -0.01881682	      0.00251175	      0.00881240	      0.00613037	      0.00055344	      0.01839110	     -0.00966384	      0.00396541	      0.00490046	      0.01601019	      0.00000000	      0.00785378	      0.00000000	     -0.00719467	     -0.03324872	     -0.00647621	      0.01446417	     -0.00046936	     -0.00372933	     -0.00089401	      0.01498534	     -0.00613037	      0.00246918	      0.02162657	     -0.01788024	     -0.00600265	      0.01298446	     -0.00549179	     -0.01251616	      0.02741636	     -0.03069440	     -0.02349974	      0.01451705	     -0.00736495	     -0.01558135	      0.03167356	     -0.03835736
